<svg width="20" height="20" viewBox="0 0 20 20" fill="none" xmlns="http://www.w3.org/2000/svg">
<g id="discord">
<path id="Vector" d="M13.6465 6.72204C14.825 8.467 15.407 10.4353 15.1894 12.7012C15.1885 12.7108 15.1835 12.7196 15.1757 12.7254C14.2833 13.3853 13.4186 13.7858 12.5661 14.0514C12.5594 14.0535 12.5523 14.0533 12.5458 14.0511C12.5392 14.0489 12.5335 14.0446 12.5294 14.0389C12.3325 13.763 12.1535 13.472 11.9967 13.1665C11.9877 13.1485 11.996 13.1268 12.0145 13.1197C12.2987 13.0119 12.569 12.8826 12.8289 12.7296C12.8494 12.7175 12.8507 12.6879 12.8318 12.6737C12.7766 12.6325 12.722 12.5891 12.6697 12.5458C12.6599 12.5378 12.6467 12.5362 12.6356 12.5416C10.9479 13.3265 9.09914 13.3265 7.39149 12.5416C7.3804 12.5366 7.36723 12.5383 7.3577 12.5462C7.30553 12.5895 7.25075 12.6325 7.1961 12.6737C7.17718 12.6879 7.17875 12.7175 7.19936 12.7296C7.45931 12.8797 7.72957 13.0119 8.0134 13.1202C8.03179 13.1273 8.04053 13.1485 8.0314 13.1665C7.87801 13.4724 7.69905 13.7634 7.49844 14.0393C7.4897 14.0505 7.47536 14.0556 7.46179 14.0514C6.61331 13.7858 5.74866 13.3853 4.85623 12.7254C4.8488 12.7196 4.84345 12.7104 4.84267 12.7008C4.66084 10.7408 5.0314 8.75625 6.38414 6.72164C6.3874 6.71626 6.39236 6.71205 6.3981 6.70956C7.0637 6.40192 7.77679 6.17559 8.52209 6.04633C8.53566 6.04423 8.54922 6.05053 8.55627 6.06262C8.64835 6.22682 8.75362 6.43738 8.82483 6.60946C9.61044 6.48861 10.4083 6.48861 11.2104 6.60946C11.2816 6.44106 11.3832 6.22682 11.4749 6.06262C11.4781 6.05662 11.4832 6.05182 11.4893 6.0489C11.4955 6.04597 11.5024 6.04507 11.509 6.04633C12.2547 6.17598 12.9678 6.40231 13.6329 6.70956C13.6388 6.71205 13.6436 6.71626 13.6465 6.72204ZM9.22422 10.4487C9.23244 9.86925 8.81296 9.38979 8.2864 9.38979C7.76414 9.38979 7.3487 9.86504 7.3487 10.4487C7.3487 11.0322 7.77236 11.5074 8.2864 11.5074C8.80879 11.5074 9.22422 11.0322 9.22422 10.4487ZM12.6914 10.4487C12.6997 9.86925 12.2802 9.38979 11.7537 9.38979C11.2313 9.38979 10.8159 9.86504 10.8159 10.4487C10.8159 11.0322 11.2396 11.5074 11.7537 11.5074C12.2802 11.5074 12.6914 11.0322 12.6914 10.4487Z" fill="white"/>
</g>
</svg>
