<svg width="20" height="20" viewBox="0 0 20 20" fill="none" xmlns="http://www.w3.org/2000/svg">
<g id="donation">
<path id="Vector" d="M7.77909 9.58506L9.58742 9.58548C11.6585 9.58548 13.3374 11.2644 13.3374 13.3355L7.50324 13.3347L7.50407 14.1688L14.1708 14.1681V13.3355C14.1708 12.4334 13.9056 11.5829 13.4323 10.8348L15.8374 10.8355C17.4977 10.8355 18.9311 11.8065 19.6008 13.2116C17.6302 15.8121 14.439 17.5021 10.8374 17.5021C8.53634 17.5021 6.58698 17.0099 5.00373 16.1481L5.00494 8.39464C6.04289 8.54323 6.99269 8.96514 7.77909 9.58506ZM3.3374 7.50211C3.76477 7.50211 4.11699 7.82381 4.16514 8.23826L4.17074 8.33473V15.8355C4.17074 16.2956 3.79764 16.6688 3.3374 16.6688H1.67074C1.2105 16.6688 0.837402 16.2956 0.837402 15.8355V8.33548C0.837402 7.8752 1.2105 7.50211 1.67074 7.50211H3.3374ZM11.3761 2.98159L11.6705 3.27639L11.9653 2.98159C12.7789 2.168 14.0981 2.168 14.9117 2.98159C15.7253 3.79518 15.7253 5.11428 14.9117 5.92787L11.6708 9.16881L8.42984 5.92787C7.61624 5.11428 7.61624 3.79518 8.42984 2.98159C9.24342 2.168 10.5625 2.168 11.3761 2.98159Z" fill="white"/>
</g>
</svg>
