<svg width="20" height="20" viewBox="0 0 20 20" fill="none" xmlns="http://www.w3.org/2000/svg">
<g id="eye">
<path id="Vector" d="M0.984699 10C1.76846 5.73313 5.50677 2.5 10.0002 2.5C14.4937 2.5 18.232 5.73313 19.0157 10C18.232 14.2668 14.4937 17.5 10.0002 17.5C5.50677 17.5 1.76846 14.2668 0.984699 10ZM10.0002 14.1667C12.3014 14.1667 14.1669 12.3012 14.1669 10C14.1669 7.69882 12.3014 5.83333 10.0002 5.83333C7.69903 5.83333 5.83355 7.69882 5.83355 10C5.83355 12.3012 7.69903 14.1667 10.0002 14.1667ZM10.0002 12.5C8.6195 12.5 7.50022 11.3807 7.50022 10C7.50022 8.61925 8.6195 7.5 10.0002 7.5C11.3809 7.5 12.5002 8.61925 12.5002 10C12.5002 11.3807 11.3809 12.5 10.0002 12.5Z" fill="white"/>
</g>
</svg>
