<svg width="20" height="20" viewBox="0 0 20 20" fill="none" xmlns="http://www.w3.org/2000/svg">
<g id="eye_off">
<path id="Vector" d="M3.76706 4.9455L1.16139 2.33983L2.3399 1.16132L18.8391 17.6604L17.6606 18.839L14.9023 16.0807C13.4845 16.9796 11.8032 17.5002 10.0003 17.5002C5.50677 17.5002 1.76846 14.267 0.984703 10.0002C1.3486 8.01904 2.34944 6.26077 3.76706 4.9455ZM12.2981 13.4765L11.0781 12.2565C10.7517 12.4127 10.3862 12.5002 10.0003 12.5002C8.6195 12.5002 7.50022 11.3809 7.50022 10.0002C7.50022 9.61419 7.58769 9.24869 7.74386 8.92227L6.52389 7.70233C6.08762 8.36102 5.83355 9.15094 5.83355 10.0002C5.83355 12.3014 7.69904 14.1669 10.0003 14.1669C10.8494 14.1669 11.6393 13.9128 12.2981 13.4765ZM6.64539 3.13348C7.68439 2.72468 8.81609 2.50016 10.0003 2.50016C14.4937 2.50016 18.232 5.73329 19.0158 10.0002C18.7556 11.4165 18.1698 12.719 17.339 13.8271L14.1225 10.6106C14.1518 10.4114 14.1669 10.2075 14.1669 10.0002C14.1669 7.69897 12.3014 5.83349 10.0003 5.83349C9.79284 5.83349 9.589 5.84863 9.38975 5.87788L6.64539 3.13348Z" fill="white"/>
</g>
</svg>
