<svg width="20" height="20" viewBox="0 0 20 20" fill="none" xmlns="http://www.w3.org/2000/svg">
<g id="meditation">
<path id="Vector" d="M10.0091 4.25579e-05C9.43471 4.25579e-05 8.90231 0.261364 8.48842 0.733292C8.13373 1.13756 7.88335 1.69307 7.81877 2.31944C8.3625 2.10969 8.91564 1.98263 9.46912 1.93621V2.71992C8.93394 2.77856 8.39495 2.93317 7.85079 3.18959C7.94685 3.72131 8.17795 4.19034 8.48837 4.54427C8.90226 5.01616 9.43461 5.27752 10.009 5.27752C10.5834 5.27752 11.1173 5.01616 11.5312 4.54427C11.8322 4.20107 12.0575 3.74941 12.1581 3.23754C11.5689 2.94662 10.9772 2.76927 10.3811 2.71192V1.93217C10.9998 1.97845 11.6121 2.12446 12.2038 2.36599C12.1475 1.72054 11.8946 1.14757 11.5313 0.73325C11.1173 0.261364 10.5834 0 10.0089 0L10.0091 4.25579e-05ZM7.73492 4.9927C7.22527 5.19709 6.83734 5.46884 6.6322 5.77917L6.6139 5.77513L4.58226 8.51898L2.10984 7.58347C0.676104 6.89714 -0.895467 8.60542 0.615143 9.3586L5.22604 11.2349L7.08221 9.10307C7.99492 10.5382 7.90072 11.9743 6.54679 13.4104C6.13953 13.3831 5.7478 13.3696 5.377 13.3718C3.40945 13.3837 2.01208 13.8085 1.76975 14.5973L1.77121 14.5974C1.5545 15.3034 2.30771 16.1589 3.68087 16.9513C6.39826 18.1988 8.33619 18.5893 11.3422 18.7544H11.4184L11.4398 18.7597C11.4605 18.7608 11.48 18.7627 11.5008 18.7637L11.4992 18.7771L15.9927 20L14.9096 17.7125L6.11518 15.1643L6.40192 14.4098L9.90683 15.4251L13.4134 14.4098L13.7002 15.1643L11.3528 15.8443L15.9622 17.1803C17.5969 16.3267 18.5259 15.3719 18.2882 14.5975C17.9977 13.6517 16.0466 13.2303 13.444 13.4145C12.1558 12.0001 12.1654 10.5866 12.9788 9.17231L14.774 11.2349L19.3849 9.3586C20.8955 8.60546 19.3239 6.89714 17.8901 7.58351L15.4161 8.51894L13.386 5.77513H13.3829C13.1771 5.46658 12.7907 5.19619 12.2833 4.9927C12.2735 5.00419 12.2642 5.01599 12.2543 5.02732C11.7043 5.65433 10.9055 6.0732 10.0091 6.0732C9.11263 6.0732 8.31388 5.65432 7.76391 5.02727C7.75401 5.01599 7.74468 5.00415 7.73492 4.9927ZM4.62653 18.2355L3.81046 19.96L7.22097 19.0326C6.36078 18.8378 5.51611 18.5798 4.62653 18.2355Z" fill="white"/>
</g>
</svg>
