<svg width="20" height="20" viewBox="0 0 20 20" fill="none" xmlns="http://www.w3.org/2000/svg">
<g id="profile">
<path id="Vector" d="M1.66667 3.32783C1.66667 2.87063 2.0461 2.5 2.49317 2.5H17.5068C17.9633 2.5 18.3333 2.87079 18.3333 3.32783V16.6722C18.3333 17.1293 17.9539 17.5 17.5068 17.5H2.49317C2.03671 17.5 1.66667 17.1292 1.66667 16.6722V3.32783ZM5.00001 12.5V14.1667H15V12.5H5.00001ZM5.00001 5.83333V10.8333H10V5.83333H5.00001ZM11.6667 5.83333V7.5H15V5.83333H11.6667ZM11.6667 9.16667V10.8333H15V9.16667H11.6667ZM6.66667 7.5H8.33334V9.16667H6.66667V7.5Z" fill="white"/>
</g>
</svg>
