<svg width="20" height="20" viewBox="0 0 20 20" fill="none" xmlns="http://www.w3.org/2000/svg">
<g id="qr">
<path id="Vector" d="M13.3333 14.1667V13.3333H10.8333V10.8333H13.3333V12.5H15V14.1667H14.1667V15.8333H12.5V17.5H10.8333V15H12.5V14.1667H13.3333ZM17.5 17.5H14.1667V15.8333H15.8333V14.1667H17.5V17.5ZM2.5 2.5H9.16667V9.16667H2.5V2.5ZM10.8333 2.5H17.5V9.16667H10.8333V2.5ZM2.5 10.8333H9.16667V17.5H2.5V10.8333ZM15 10.8333H17.5V12.5H15V10.8333ZM5 5V6.66667H6.66667V5H5ZM5 13.3333V15H6.66667V13.3333H5ZM13.3333 5V6.66667H15V5H13.3333Z" fill="white"/>
</g>
</svg>
