<svg width="20" height="20" viewBox="0 0 20 20" fill="none" xmlns="http://www.w3.org/2000/svg">
<g id="search">
<path id="Vector" d="M15.0258 13.8474L18.5948 17.4163L17.4163 18.5948L13.8473 15.0259C12.5641 16.0525 10.9367 16.6667 9.16667 16.6667C5.02667 16.6667 1.66667 13.3067 1.66667 9.16669C1.66667 5.02669 5.02667 1.66669 9.16667 1.66669C13.3067 1.66669 16.6667 5.02669 16.6667 9.16669C16.6667 10.9367 16.0525 12.5641 15.0258 13.8474ZM13.3539 13.229C14.3729 12.1789 15 10.7464 15 9.16669C15 5.94377 12.3896 3.33335 9.16667 3.33335C5.94375 3.33335 3.33334 5.94377 3.33334 9.16669C3.33334 12.3896 5.94375 15 9.16667 15C10.7463 15 12.1788 14.3729 13.229 13.3539L13.3539 13.229ZM10.1483 5.98022C9.5695 6.24154 9.16667 6.82374 9.16667 7.50002C9.16667 8.42052 9.91284 9.16669 10.8333 9.16669C11.5096 9.16669 12.0918 8.76385 12.3532 8.18512C12.4486 8.49544 12.5 8.82502 12.5 9.16669C12.5 11.0076 11.0076 12.5 9.16667 12.5C7.32572 12.5 5.83334 11.0076 5.83334 9.16669C5.83334 7.32574 7.32572 5.83335 9.16667 5.83335C9.50834 5.83335 9.83792 5.88475 10.1483 5.98022Z" fill="white"/>
</g>
</svg>
