<svg width="20" height="20" viewBox="0 0 20 20" fill="none" xmlns="http://www.w3.org/2000/svg">
<g id="skate">
<path id="Vector" d="M7.27775 19.9983L2.34915 15.6846L4.56011 18.5108L0 16.5421L3.77706 18.9921L0.230309 19.1233L7.27775 19.9983ZM9.7743 18.7733C10.1059 18.5546 10.5435 18.6858 10.7462 18.9921C10.9535 19.2983 10.8475 19.6921 10.5159 19.9108C10.1842 20.0858 9.75127 19.9983 9.54399 19.6921C9.34132 19.3858 9.44265 18.9483 9.7743 18.7733ZM6.68816 18.2483L7.92722 19.3421H7.91801L18.9222 12.8891L18.9544 11.3753L17.9963 11.3535L17.9733 12.3728C16.596 13.1866 9.20774 17.5484 7.83049 18.3358L6.85398 17.8983L6.68816 18.2483ZM10.0322 2.05239C10.304 3.04549 11.2437 3.7936 12.3768 3.81985C13.3303 3.8461 14.1732 3.35611 14.6154 2.62113C16.8033 3.41736 18.7149 4.93546 20 6.9173L13.1644 4.80421L11.8471 7.21917L16.1216 7.79666L16.5039 11.6772L15.0944 12.4078L14.2883 9.3235L10.4883 9.73475L9.53478 15.8771L8.38784 16.7609L7.47121 9.3585L9.11101 4.08672L2.18425 6.71605C4.52326 3.7761 7.30539 2.34551 10.0322 2.05239ZM17.5035 14.219C17.8397 14.0222 18.2819 14.1184 18.4892 14.4378C18.6965 14.7572 18.5905 15.1771 18.2589 15.374C17.9226 15.5709 17.4804 15.4746 17.2731 15.1553C17.0659 14.8359 17.1672 14.4159 17.5035 14.219ZM12.4827 0.000549155C13.3303 0.0224238 13.9982 0.691787 13.9751 1.4924C13.9521 2.29738 13.2474 2.93175 12.3998 2.90987C11.5569 2.888 10.889 2.21863 10.912 1.41365C10.9351 0.613038 11.6398 -0.0213254 12.4827 0.000549155Z" fill="white"/>
</g>
</svg>
