<svg width="20" height="20" viewBox="0 0 20 20" fill="none" xmlns="http://www.w3.org/2000/svg">
<g id="skis">
<path id="Vector" d="M2.33212 0C2.29511 0 2.26273 0.00764542 2.22572 0.0212373C2.15077 0.0492705 2.10775 0.0853739 2.05825 0.173296C2.00828 0.261643 1.96711 0.403084 1.95184 0.582326C1.92084 0.940387 1.99116 1.43522 2.10867 1.91943C2.346 2.88742 2.74849 3.81082 2.74849 3.81082L4.31218 7.36594L4.89972 6.09595L6.28762 6.63538L4.72393 3.08153C4.72393 3.08153 4.31218 2.15728 3.74777 1.31119C3.46557 0.888143 3.14173 0.487608 2.85027 0.24975C2.70223 0.130822 2.56344 0.0552169 2.46166 0.0237857C2.41077 0.0076454 2.36913 0 2.33212 0ZM9.44739 0.00424747C9.41038 0.00424747 9.36874 0.0118929 9.31785 0.0280332C9.21607 0.0594644 9.07728 0.135069 8.93387 0.253998C8.63778 0.491855 8.31394 0.891966 8.03174 1.31501C7.46733 2.16111 7.05559 3.08493 7.05559 3.08493L6.33851 4.71765L7.37017 7.06225L7.48583 7.32559L9.03565 3.81719C9.03565 3.81719 9.43814 2.89379 9.67408 1.92495C9.78973 1.44074 9.85913 0.945484 9.83137 0.587423C9.81287 0.408181 9.77123 0.266316 9.72497 0.177968C9.67408 0.0896214 9.63244 0.053518 9.55379 0.0254848C9.51678 0.0118929 9.4844 0.00424747 9.44739 0.00424747ZM13.9395 6.79041V8.74424H15.1424V6.79041H13.9395ZM17.9182 6.79041V8.74424H19.121V6.79041H17.9182ZM5.34385 7.10047L4.75168 8.37471L5.14492 9.26243L5.73246 7.98819L7.12035 8.52762L6.73174 7.6399L5.34385 7.10047ZM6.17659 8.99059L5.58905 10.2606L5.92214 11.0209L7.89757 10.2861L7.56448 9.53002L6.17659 8.99059ZM4.29368 9.36437L3.88194 10.2903L4.86271 10.6556L4.29368 9.36437ZM14.1246 9.50878V18.2585H13.0605V19.0231H14.1246V20H14.9573V19.0231H16.0214V18.2585H14.9573V9.50878H14.1246ZM18.1032 9.50878V18.2585H17.0392V19.0231H18.1032V20H18.9359V19.0231H20V18.2585H18.9359V9.50878H18.1032ZM8.20754 10.9954L6.23673 11.7302L6.75488 12.911L8.73031 12.1762L8.48974 11.6283L8.20754 10.9954ZM3.5766 10.9996L3.05383 12.1804L5.02464 12.9152L5.441 11.9723L5.32997 11.7175L5.29759 11.641L3.5766 10.9996ZM9.04027 12.8855L7.06946 13.6161L9.80824 19.8428L11.779 19.108L9.04027 12.8855ZM2.73924 12.8876L0 19.1059L1.97266 19.8407L4.71467 13.6224L2.73924 12.8876Z" fill="white"/>
</g>
</svg>
