<svg width="20" height="20" viewBox="0 0 20 20" fill="none" xmlns="http://www.w3.org/2000/svg">
<g id="status_wrong" clip-path="url(#clip0_0_750)">
<path id="Vector (Stroke)" fill-rule="evenodd" clip-rule="evenodd" d="M8.66826 0.55325C9.41092 -0.189408 10.5991 -0.179408 11.3317 0.55325L19.4468 8.66826C20.1894 9.41092 20.1794 10.5991 19.4468 11.3317L11.3317 19.4468C10.5891 20.1894 9.40092 20.1794 8.66826 19.4468L0.55325 11.3317C-0.189408 10.5891 -0.179408 9.40092 0.55325 8.66826L8.66826 0.55325ZM10 1.89241L1.89241 10L10 18.1076L18.1076 10L10 1.89241ZM9.85024 11.1857L7.81842 13.2175L6.48298 11.8821L8.5148 9.85024L6.48298 7.81842L7.81842 6.48298L9.85024 8.5148L11.8821 6.48298L13.2175 7.81842L11.1857 9.85024L13.2175 11.8821L11.8821 13.2175L9.85024 11.1857Z" fill="white"/>
</g>
<defs>
<clipPath id="clip0_0_750">
<rect width="20" height="20" fill="white"/>
</clipPath>
</defs>
</svg>
