<svg width="20" height="20" viewBox="0 0 20 20" fill="none" xmlns="http://www.w3.org/2000/svg">
<g id="telegram">
<path id="Vector" d="M5.56407 9.64573C5.56407 9.64573 9.63301 7.93196 11.0442 7.3285C11.5852 7.08714 13.4197 6.3147 13.4197 6.3147C13.4197 6.3147 14.2664 5.97679 14.1959 6.79747C14.1723 7.13541 13.9842 8.31814 13.796 9.59745C13.5138 11.4078 13.208 13.3871 13.208 13.3871C13.208 13.3871 13.161 13.9423 12.7611 14.0388C12.3613 14.1354 11.7027 13.7009 11.5852 13.6043C11.491 13.5319 9.82116 12.4457 9.20964 11.9147C9.045 11.7699 8.85685 11.4802 9.23314 11.1423C10.0799 10.3457 11.0912 9.35609 11.7027 8.72851C11.985 8.43884 12.2672 7.76299 11.0912 8.58366C9.42132 9.76643 7.77493 10.8768 7.77493 10.8768C7.77493 10.8768 7.39861 11.1181 6.69302 10.9009C5.9874 10.6837 5.1642 10.394 5.1642 10.394C5.1642 10.394 4.59976 10.0319 5.56407 9.64573Z" fill="white"/>
</g>
</svg>
