<svg width="20" height="20" viewBox="0 0 20 20" fill="none" xmlns="http://www.w3.org/2000/svg">
<g id="vkontakte">
<path id="path4" fill-rule="evenodd" clip-rule="evenodd" d="M15.8356 7.12029C15.9202 6.8559 15.8356 6.66162 15.4334 6.66162H14.1032C13.765 6.66162 13.6091 6.82945 13.5245 7.01451C13.5245 7.01451 12.8481 8.56117 11.8899 9.56583C11.5798 9.85665 11.4389 9.94918 11.2698 9.94918C11.1852 9.94918 11.0629 9.85665 11.0629 9.59228V7.12029C11.0629 6.80302 10.9647 6.66162 10.6828 6.66162H8.59259C8.38123 6.66162 8.25412 6.80887 8.25412 6.94843C8.25412 7.24919 8.73322 7.31855 8.78261 8.1646V10.0021C8.78261 10.4049 8.70505 10.478 8.53594 10.478C8.08501 10.478 6.98813 8.92441 6.33757 7.14671C6.21008 6.80119 6.0822 6.66162 5.74225 6.66162H4.4121C4.03205 6.66162 3.95604 6.82945 3.95604 7.01451C3.95604 7.345 4.40699 8.9842 6.05575 11.1521C7.15491 12.6327 8.70356 13.4352 10.1128 13.4352C10.9583 13.4352 11.0629 13.257 11.0629 12.95V11.831C11.0629 11.4745 11.143 11.4033 11.4107 11.4033C11.608 11.4033 11.9462 11.4958 12.7354 12.2097C13.6373 13.0557 13.786 13.4352 14.2933 13.4352H15.6234C16.0035 13.4352 16.1935 13.257 16.0839 12.9052C15.9639 12.5546 15.5333 12.046 14.9619 11.443C14.6519 11.0993 14.1869 10.7291 14.0459 10.544C13.8486 10.3061 13.905 10.2003 14.0459 9.98886C14.0459 9.98886 15.6665 7.84733 15.8356 7.12029Z" fill="white"/>
</g>
</svg>
