<svg width="20" height="20" viewBox="0 0 20 20" fill="none" xmlns="http://www.w3.org/2000/svg">
<g id="walk">
<path id="Vector" d="M11.059 0.000553638C10.4694 0.00795127 9.84845 0.111649 9.19707 0.33101C7.80492 2.73785 6.04434 5.5922 3.39493 8.09852C2.41699 9.02366 1.58442 10.0541 0.982145 11.0712C1.04187 11.3459 1.21216 11.5781 1.47689 11.8286C1.98418 12.3087 2.90112 12.7693 3.99642 13.2755C6.13383 14.2631 8.94772 15.4683 10.7518 17.9955L19.7801 17.9969C18.848 14.9145 15.1523 13.5966 12.4391 14.3442C12.4357 14.3455 12.4324 14.3471 12.429 14.3483C12.3547 14.3759 12.278 14.3979 12.1997 14.4164C12.1986 14.4166 12.1979 14.4174 12.1968 14.4177C11.7879 14.5136 11.3282 14.4908 10.8526 14.4C9.70852 14.1815 8.41767 13.543 8.0216 12.4119C6.70098 8.64029 8.79002 4.59035 11.6286 2.69577C12.693 1.98525 13.8928 1.57098 15.0655 1.63095C15.0721 1.6313 15.0789 1.63195 15.0856 1.63225C13.9692 0.642711 12.6244 -0.0191589 11.0589 0.00042308L11.059 0.000553638ZM14.8319 2.43742C13.9452 2.43785 13.0129 2.7677 12.1263 3.35943C9.60436 5.04269 7.66564 8.7999 8.84083 12.1563C9.07745 12.8321 10.0985 13.4253 11.023 13.6019C11.4852 13.6901 11.9099 13.668 12.1175 13.5896C12.2214 13.5504 12.264 13.5095 12.2834 13.4781C12.3029 13.4468 12.3208 13.4058 12.2949 13.2877C11.8759 11.3658 12.1683 9.6059 13.3349 8.30652C14.4234 7.09405 16.231 6.32822 18.7533 6.1009C18.0604 4.04936 17.024 3.00147 15.9236 2.61836C15.6279 2.51531 15.3221 2.45709 15.0092 2.44151C14.9505 2.43859 14.8909 2.43742 14.8318 2.43742H14.8319ZM0.50328 11.981C0.253832 12.5273 0.0816416 13.0582 0 13.5556C0.331274 14.7636 2.39516 15.9677 4.20411 16.225C4.2827 15.9651 4.47326 15.7257 4.67854 15.6049C7.03272 16.8601 8.65586 18.2465 9.38597 20H19.982C20.0142 19.5817 20.0023 19.1857 19.9532 18.8101L10.5238 18.8088H10.2873L10.1604 18.6197C8.5264 16.2014 5.8254 15.0262 3.61706 14.0058C2.51289 13.4956 1.53241 13.0338 0.865291 12.4025C0.727852 12.2724 0.606013 12.1316 0.50328 11.981Z" fill="white"/>
</g>
</svg>
